<svg width="46" height="15" viewBox="0 0 46 15" fill="none" xmlns="http://www.w3.org/2000/svg">
<path d="M12.6104 12.1236C12.1928 12.1236 11.8207 12.0511 11.494 11.9062C11.1673 11.7585 10.9087 11.5412 10.7184 11.2543C10.5309 10.9645 10.4371 10.6037 10.4371 10.1719C10.4371 9.80824 10.5039 9.50284 10.6374 9.25568C10.771 9.00852 10.9528 8.80966 11.1829 8.65909C11.413 8.50852 11.6744 8.39489 11.967 8.31818C12.2624 8.24148 12.5721 8.1875 12.896 8.15625C13.2766 8.11648 13.5835 8.07955 13.8164 8.04545C14.0494 8.00852 14.2184 7.95455 14.3235 7.88352C14.4286 7.8125 14.4812 7.70739 14.4812 7.56818V7.54261C14.4812 7.27273 14.396 7.06392 14.2255 6.91619C14.0579 6.76847 13.8192 6.6946 13.5096 6.6946C13.1829 6.6946 12.9229 6.76705 12.7298 6.91193C12.5366 7.05398 12.4087 7.23295 12.3462 7.44886L10.6673 7.3125C10.7525 6.91477 10.9201 6.57102 11.1701 6.28125C11.4201 5.98864 11.7425 5.7642 12.1374 5.60795C12.5352 5.44886 12.9954 5.36932 13.5181 5.36932C13.8817 5.36932 14.2298 5.41193 14.5621 5.49716C14.8974 5.58239 15.1942 5.71449 15.4528 5.89347C15.7141 6.07244 15.9201 6.30256 16.0707 6.58381C16.2212 6.86222 16.2965 7.19602 16.2965 7.58523V12H14.5749V11.0923H14.5238C14.4187 11.2969 14.2781 11.4773 14.1019 11.6335C13.9258 11.7869 13.7141 11.9077 13.467 11.9957C13.2198 12.081 12.9343 12.1236 12.6104 12.1236ZM13.1303 10.8707C13.3974 10.8707 13.6332 10.8182 13.8377 10.7131C14.0423 10.6051 14.2028 10.4602 14.3192 10.2784C14.4357 10.0966 14.494 9.89062 14.494 9.66051V8.96591C14.4371 9.00284 14.359 9.03693 14.2596 9.06818C14.163 9.09659 14.0536 9.12358 13.9315 9.14915C13.8093 9.17187 13.6871 9.19318 13.565 9.21307C13.4428 9.23011 13.332 9.24574 13.2326 9.25994C13.0195 9.29119 12.8335 9.34091 12.6744 9.40909C12.5153 9.47727 12.3917 9.5696 12.3036 9.68608C12.2156 9.79972 12.1715 9.94176 12.1715 10.1122C12.1715 10.3594 12.261 10.5483 12.44 10.679C12.6218 10.8068 12.8519 10.8707 13.1303 10.8707Z" fill="black"/>
<path d="M3.79563 8.21591V12H1.98029V3.27273H3.7445V6.60938H3.8212C3.96893 6.22301 4.20756 5.92045 4.53711 5.7017C4.86665 5.48011 5.28001 5.36932 5.77717 5.36932C6.23171 5.36932 6.62802 5.46875 6.96609 5.66761C7.307 5.86364 7.5712 6.14631 7.7587 6.51562C7.94904 6.8821 8.04279 7.32102 8.03995 7.83239V12H6.22461V8.15625C6.22745 7.75284 6.12518 7.43892 5.91779 7.21449C5.71325 6.99006 5.42631 6.87784 5.057 6.87784C4.80984 6.87784 4.59109 6.9304 4.40075 7.03551C4.21325 7.14062 4.06552 7.29403 3.95756 7.49574C3.85245 7.6946 3.79847 7.93466 3.79563 8.21591Z" fill="#00CC8B"/>
<path d="M28.5398 3.27273V12H26.7244V3.27273H28.5398Z" fill="black"/>
<path d="M34.5359 12V3.27273H36.3512V6.55398H36.4066C36.4862 6.37784 36.6012 6.19886 36.7518 6.01705C36.9052 5.83239 37.104 5.67898 37.3484 5.55682C37.5955 5.43182 37.9023 5.36932 38.2688 5.36932C38.7461 5.36932 39.1864 5.49432 39.5898 5.74432C39.9933 5.99148 40.3157 6.36506 40.5572 6.86506C40.7987 7.36222 40.9194 7.9858 40.9194 8.7358C40.9194 9.46591 40.8015 10.0824 40.5657 10.5852C40.3327 11.0852 40.0146 11.4645 39.6112 11.723C39.2106 11.9787 38.7617 12.1065 38.2646 12.1065C37.9123 12.1065 37.6126 12.0483 37.3654 11.9318C37.1211 11.8153 36.9208 11.669 36.7646 11.4929C36.6083 11.3139 36.489 11.1335 36.4066 10.9517H36.3256V12H34.5359ZM36.3129 8.72727C36.3129 9.11648 36.3668 9.45597 36.4748 9.74574C36.5827 10.0355 36.739 10.2614 36.9435 10.4233C37.1481 10.5824 37.3967 10.6619 37.6893 10.6619C37.9847 10.6619 38.2347 10.581 38.4393 10.419C38.6438 10.2543 38.7987 10.027 38.9038 9.73722C39.0117 9.4446 39.0657 9.10795 39.0657 8.72727C39.0657 8.34943 39.0131 8.01705 38.908 7.73011C38.8029 7.44318 38.6481 7.21875 38.4435 7.05682C38.239 6.89489 37.9876 6.81392 37.6893 6.81392C37.3938 6.81392 37.1438 6.89205 36.9393 7.0483C36.7376 7.20455 36.5827 7.42614 36.4748 7.71307C36.3668 8 36.3129 8.33807 36.3129 8.72727Z" fill="black"/>
<path d="M30.7244 12V5.45455H32.5398V12H30.7244ZM31.6364 4.6108C31.3665 4.6108 31.1349 4.52131 30.9418 4.34233C30.7514 4.16051 30.6562 3.94318 30.6562 3.69034C30.6562 3.44034 30.7514 3.22585 30.9418 3.04688C31.1349 2.86506 31.3665 2.77415 31.6364 2.77415C31.9063 2.77415 32.1364 2.86506 32.3267 3.04688C32.5199 3.22585 32.6165 3.44034 32.6165 3.69034C32.6165 3.94318 32.5199 4.16051 32.3267 4.34233C32.1364 4.52131 31.9063 4.6108 31.6364 4.6108Z" fill="black"/>
<path d="M21.5021 12.1278C20.8402 12.1278 20.2678 11.9872 19.7848 11.706C19.3047 11.4219 18.9339 11.027 18.6726 10.5213C18.4112 10.0128 18.2805 9.4233 18.2805 8.75284C18.2805 8.0767 18.4112 7.4858 18.6726 6.98011C18.9339 6.47159 19.3047 6.0767 19.7848 5.79545C20.2678 5.51136 20.8402 5.36932 21.5021 5.36932C22.1641 5.36932 22.7351 5.51136 23.2152 5.79545C23.6982 6.0767 24.0703 6.47159 24.3317 6.98011C24.593 7.4858 24.7237 8.0767 24.7237 8.75284C24.7237 9.4233 24.593 10.0128 24.3317 10.5213C24.0703 11.027 23.6982 11.4219 23.2152 11.706C22.7351 11.9872 22.1641 12.1278 21.5021 12.1278ZM21.5107 10.7216C21.8118 10.7216 22.0632 10.6364 22.2649 10.4659C22.4666 10.2926 22.6186 10.0568 22.7209 9.75852C22.826 9.46023 22.8786 9.12074 22.8786 8.74006C22.8786 8.35938 22.826 8.01989 22.7209 7.72159C22.6186 7.4233 22.4666 7.1875 22.2649 7.0142C22.0632 6.84091 21.8118 6.75426 21.5107 6.75426C21.2067 6.75426 20.951 6.84091 20.7436 7.0142C20.5391 7.1875 20.3842 7.4233 20.2791 7.72159C20.1768 8.01989 20.1257 8.35938 20.1257 8.74006C20.1257 9.12074 20.1768 9.46023 20.2791 9.75852C20.3842 10.0568 20.5391 10.2926 20.7436 10.4659C20.951 10.6364 21.2067 10.7216 21.5107 10.7216Z" fill="black"/>
</svg>
